<svg width="321" height="320" viewBox="0 0 321 320" fill="none" xmlns="http://www.w3.org/2000/svg">
<path d="M221.189 11.0868C242.111 -5.50219 280.481 -3.13307 299.203 15.9038C320.199 32.3983 326.811 70.2681 312.646 92.9014C294.284 56.2564 259.645 25.2694 221.189 11.0868Z" fill="#22A7F0"/>
<path d="M35.3399 252.369L6.63837 281.071C-2.1288 288.224 -2.1288 306.271 6.63837 313.425C13.7915 322.192 31.8392 322.192 38.9923 313.425L65.9101 286.507C112.912 330.706 207.251 330.706 254.253 286.507L281.171 313.425C288.324 322.192 306.372 322.192 313.525 313.425C322.292 306.271 322.292 288.224 313.525 281.071L284.823 252.369C314.118 210.397 316.688 144.571 290.754 100.443C267.854 54.6664 211.237 20.9889 160.082 22.7152C108.926 20.9889 52.3087 54.6664 29.4089 100.443C3.47514 144.571 6.04491 210.397 35.3399 252.369Z" fill="#22A7F0"/>
<path d="M98.9753 11.0868C78.0534 -5.50219 39.6838 -3.13307 20.9616 15.9038C-0.034963 32.3983 -6.64656 70.2681 7.51874 92.9014C25.8804 56.2564 60.5193 25.2694 98.9753 11.0868Z" fill="#22A7F0"/>
</svg>
